<svg height="480pt" viewBox="-48 0 480 480.00018" width="480pt" xmlns="http://www.w3.org/2000/svg"><path d="m167.535156 144.121094c-1.417968.035156-2.800781.457031-4 1.222656l-24 16-45.933594 30.65625h-42.289062l-2.34375-2.34375c-8.765625-8.714844-20.609375-13.621094-32.96875-13.65625h-8c-4.417969 0-8 3.582031-8 8v32c0 4.417969 3.582031 8 8 8 8.117188.023438 15.898438 3.246094 21.65625 8.96875l10.34375 10.34375v31.085938c-.097656 22.207031 15.816406 41.253906 37.683594 45.109374 21.871094 3.851563 43.335937-8.605468 50.835937-29.507812l15.480469-42.601562v7.800781l-7.839844 39.199219c-.105468.527343-.160156 1.0625-.160156 1.601562v144c0 4.417969 3.582031 8 8 8h8v8c0 1.242188.285156 2.464844.839844 3.574219l8 16c1.355468 2.714843 4.128906 4.425781 7.160156 4.425781h48c3.046875.015625 5.839844-1.699219 7.199219-4.425781l8-16c.539062-1.113281.816406-2.335938.800781-3.574219v-8h8c4.417969 0 8-3.582031 8-8v-144c0-.539062-.054688-1.074219-.160156-1.601562l-7.839844-39.199219v-7.808594l15.480469 42.5625c7.496093 20.890625 28.949219 33.351563 50.808593 29.507813 21.863282-3.839844 37.785157-22.863282 37.710938-45.0625v-31.085938l10.34375-10.34375c5.757812-5.722656 13.539062-8.945312 21.65625-8.96875 4.417969 0 8-3.582031 8-8v-32c0-4.417969-3.582031-8-8-8h-8c-12.359375.035156-24.203125 4.941406-32.96875 13.65625l-2.34375 2.34375h-42.289062l-45.980469-30.65625-24-16c-1.199219-.761719-2.582031-1.183594-4-1.214844-.226563-.933594-.367188-1.890625-.417969-2.847656v-5.488281c2.945312-2.226563 5.566406-4.847657 7.792969-7.792969h24.207031c4.167969.015625 7.648438-3.175781 8-7.328125l2.710938-32.097656c.183593-1.871094.199218-3.832031.199218-5.695313 0-.984375-.085937-1.917968-.125-2.878906h21.214844c4.417969 0 8-3.582031 8-8 .027344-19.101562-7.550781-37.433594-21.058594-50.941406-13.507812-13.507813-31.839844-21.0859378-50.941406-21.058594-4.417969 0-8 3.582031-8 8v8h-40c-4.417969 0-8 3.582031-8 8v.417969c-2.613281 1.421875-5.121094 3.027343-7.511719 4.796875l-18.832031-18.871094-11.3125 11.3125 18.457031 18.464844c-1.046875 1.253906-2.023437 2.535156-2.96875 3.855468l-22.257812-11.136718-7.148438 14.359375 21.597657 10.792969c-.800782 2.007812-1.535157 4-2.136719 6.046874h-23.886719v16h21.167969c-.144531 2.8125-.09375 5.628907.144531 8.433594l2.71875 32.238282c.371094 4.125 3.828125 7.289062 7.96875 7.289062h24.207031c2.226563 2.945312 4.847657 5.566406 7.792969 7.792969v5.488281c-.066406.957031-.222656 1.910156-.464844 2.839844zm-.550781 18.175781 13.703125 13.703125-28.6875 28.6875v-32.40625zm57.015625 85.703125h-64v-16h64zm-208-39.296875v-16.703125c8.117188.023438 15.898438 3.246094 21.65625 8.96875l2.34375 2.34375v17.398438c-6.667969-6.246094-15.003906-10.417969-24-12.007813zm97.496094 75.792969c-4.914063 13.515625-18.820313 21.550781-32.980469 19.066406-14.164063-2.488281-24.5-14.78125-24.515625-29.164062v-66.398438h40c1.578125-.003906 3.125-.46875 4.441406-1.34375l35.558594-23.703125v39.640625zm54.503906 169.617187v-6.113281h16v16h-11.054688zm48 0-4.945312 9.886719h-11.054688v-16h16zm16-22.113281h-80v-135.199219l6.550781-32.800781h66.898438l6.550781 32.800781zm136-240v16.703125c-8.996094 1.589844-17.332031 5.757813-24 12v-17.390625l2.34375-2.34375c5.757812-5.722656 13.539062-8.945312 21.65625-8.96875zm-80 16h40v66.398438c.003906 14.390624-10.324219 26.703124-24.492188 29.199218-14.171874 2.5-28.085937-5.539062-33.003906-19.0625l-22.503906-61.941406v-39.640625l35.558594 23.703125c1.316406.875 2.863281 1.339844 4.441406 1.34375zm-56-35.71875v43.71875h-68.6875l53.703125-53.703125zm-16-68.28125c0 13.253906-10.746094 24-24 24s-24-10.746094-24-24v-18.34375c0-3.125 2.53125-5.65625 5.65625-5.65625h36.6875c3.125 0 5.65625 2.53125 5.65625 5.65625zm26.753906-16.910156-2.105468 24.910156h-9.449219c.535156-2.632812.804687-5.3125.800781-8v-18.34375c.019531-5.746094-2.265625-11.261719-6.34375-15.3125-.511719-.511719-1.105469-.902344-1.65625-1.359375v-25.601563c9.386719 7.628907 15.765625 18.332032 18.007812 30.21875.597657 3.054688.890626 6.164063.871094 9.277344 0 1.335938.015625 2.722656-.125 4.210938zm-18.753906-70.523438c24.597656 3.511719 43.925781 22.835938 47.441406 47.433594h-15.386718c-4.996094-16.964844-16.527344-31.246094-32.054688-39.710938zm-48 15.433594h32v32h-32zm-32.648438 80-2.101562-24.953125c-.40625-4.5625-.136719-9.160156.796875-13.648437.988281-5.335938 2.855469-10.472657 5.527344-15.199219 2.589843-4.636719 5.871093-8.851563 9.738281-12.496094.855469-.800781 1.808594-1.40625 2.703125-2.136719v25.433594c-.550781.457031-1.144531.847656-1.65625 1.359375-4.078125 4.042969-6.367187 9.554687-6.359375 15.296875v18.34375c-.003906 2.6875.265625 5.367188.800781 8zm48.648438 32c2.738281 0 5.472656-.285156 8.152344-.847656.21875 3.71875 1.101562 7.367187 2.609375 10.777344l-10.761719 10.757812-10.761719-10.757812c1.507813-3.410157 2.390625-7.058594 2.609375-10.777344 2.679688.5625 5.414063.847656 8.152344.847656zm0 0"/></svg>