<?xml version="1.0"?>
<svg xmlns="http://www.w3.org/2000/svg" id="Layer_2" data-name="Layer 2" viewBox="0 0 128 128" width="512" height="512"><title>SPORT BRA</title><path d="M117,56a1.749,1.749,0,0,0-.76-1.443,31.83,31.83,0,0,1-13.823-26.252V1.75A1.75,1.75,0,0,0,100.667,0h-17a1.75,1.75,0,0,0-1.75,1.75V6.1L69.5,13.989a10.29,10.29,0,0,1-11,0L46.083,6.1V1.75A1.75,1.75,0,0,0,44.333,0h-17a1.75,1.75,0,0,0-1.75,1.75V28.309A31.83,31.83,0,0,1,11.76,54.561,1.749,1.749,0,0,0,11,56,117.837,117.837,0,0,0,24.448,110.56l2.565,4.886v10.8a1.75,1.75,0,0,0,1.75,1.75H99.237a1.75,1.75,0,0,0,1.75-1.75v-10.8l2.565-4.886A117.837,117.837,0,0,0,117,56ZM56.625,16.943a13.806,13.806,0,0,0,14.751,0l10.541-6.7V20.315L74.625,24.95a13.681,13.681,0,0,0-6.375,11.6V53.723a17.836,17.836,0,0,1-8.5,0V36.554a13.681,13.681,0,0,0-6.375-11.6l-7.292-4.635V10.243Zm25.292,7.519V36.337A17.921,17.921,0,0,1,71.75,52.466V36.554A10.2,10.2,0,0,1,76.5,27.9ZM46.083,36.337V24.462L51.5,27.9a10.2,10.2,0,0,1,4.752,8.65V52.466A17.921,17.921,0,0,1,46.083,36.337ZM14.5,56.908a35.329,35.329,0,0,0,14.579-28.6V3.5h13.5V36.337A21.448,21.448,0,0,0,57.432,56.714a20.716,20.716,0,0,0,13.136,0A21.448,21.448,0,0,0,85.417,36.337V3.5h13.5V28.309a35.329,35.329,0,0,0,14.579,28.6,114.326,114.326,0,0,1-13.044,52.025l-2.272,4.331H29.82l-2.272-4.331A114.326,114.326,0,0,1,14.5,56.908ZM97.487,124.5H30.513v-7.736H97.487Z"/></svg>
