<svg id="Layer_1" enable-background="new 0 0 512.001 512.001" height="512" viewBox="0 0 512.001 512.001" width="512" xmlns="http://www.w3.org/2000/svg"><g><g><path d="m428.727 214.583c15.595-12.368 29.706-26.698 42.133-42.816 30.674-39.783 40.421-76.478 40.82-78.021.423-1.629.427-3.339.013-4.971-7.04-27.719-24.307-49.241-49.934-62.238-19.083-9.678-36.162-11.205-36.88-11.265-4.762-.4-9.114 2.605-10.44 7.179-11.751 40.502-25.357 81.983-45.196 114.915-35.622-34.308-74.579-52.38-113.243-52.38-38.666 0-77.619 18.072-113.241 52.38-19.839-32.932-33.445-74.413-45.197-114.916-1.326-4.574-5.697-7.58-10.44-7.178-.718.06-17.797 1.587-36.879 11.265-25.627 12.997-42.895 34.518-49.935 62.237-.414 1.632-.41 3.342.013 4.971.399 1.543 10.146 38.237 40.819 78.019 12.427 16.118 26.538 30.45 42.134 42.818-31.536 52.766-59.404 120.791-82.884 202.39-.749 2.602-.41 5.397.938 7.745 1.015 1.766 25.604 43.572 92.128 71.28 1.233.514 2.541.769 3.845.769 1.697 0 3.39-.432 4.906-1.286 2.683-1.51 4.52-4.172 4.98-7.215.07-.461 2.111-13.828 5.513-33.813 33.411 5.427 88.348 8.143 143.301 8.143 54.952 0 109.889-2.716 143.3-8.143 3.401 19.985 5.443 33.352 5.513 33.813.461 3.043 2.298 5.705 4.98 7.215 1.518.854 3.209 1.286 4.906 1.286 1.304 0 2.611-.255 3.845-.769 66.524-27.708 91.113-69.514 92.127-71.28 1.349-2.348 1.687-5.143.938-7.745-23.479-81.598-51.347-149.625-82.883-202.389zm24.962 95.543c-17.835 15.378-36.578 26.297-55.898 32.555-3.01-12.967-6.157-25.446-9.378-36.74 21.143-7.079 37.997-15.765 51.73-26.729 4.615 9.919 9.131 20.226 13.546 30.914zm-51.525 52.137c20.584-6.389 40.46-17.313 59.321-32.597 4.146 10.758 8.196 21.867 12.148 33.321-14.058 15.599-39.9 34.914-61.987 46.604-2.84-15.152-6.038-31.336-9.482-47.328zm29-101.622c-12.366 10.79-28.13 19.275-48.682 26.199-1.413-4.127-2.833-7.953-4.253-11.425 11.662-11.313 18.562-25.099 19.999-40.261 2.892-1.646 5.759-3.33 8.573-5.09 1.914-1.197 3.803-2.429 5.68-3.678 6.381 10.764 12.611 22.186 18.683 34.255zm-.029-224.049c15.508 3.558 49.302 15.652 60.477 54.532-2.417 7.756-11.291 33.172-31.26 61.227l-39.608-.395-18.87-33.878c11.73-25.592 21.011-53.649 29.261-81.486zm-73.232 117.656c-16.428 21.82-35.754 36.577-58.425 44.511 4.142-7.279 6.521-15.686 6.521-24.644 0-27.57-22.43-50-50-50s-50 22.43-50 50c0 8.957 2.379 17.364 6.521 24.643-22.671-7.934-41.996-22.691-58.425-44.511 32.53-32.252 67.639-49.262 101.903-49.262 34.266.001 69.378 17.012 101.905 49.263zm-101.903 49.868c-16.542 0-30-13.458-30-30s13.458-30 30-30 30 13.458 30 30-13.458 30-30 30zm-197.325-159.427c8.467-4.378 16.541-6.792 22.194-8.087 8.25 27.835 17.529 55.888 29.259 81.476l-18.871 33.878-39.608.395c-19.979-28.067-28.851-53.493-31.261-61.228 5.946-20.753 18.816-36.368 38.287-46.434zm8.774 127.505 29.817-.298c3.592-.036 6.889-1.995 8.637-5.133l15.093-27.095c4.624 8.335 9.593 16.279 14.974 23.711 30.379 41.96 69.642 62.357 120.031 62.357s89.652-20.397 120.032-62.357c5.381-7.432 10.349-15.376 14.974-23.711l15.092 27.094c1.748 3.138 5.045 5.098 8.637 5.133l29.817.298c-36.832 41.538-85.536 66.722-145.017 74.906-5.471.753-9.296 5.798-8.544 11.27.689 5.009 4.977 8.638 9.895 8.638.454 0 .913-.031 1.376-.095 25.817-3.552 50.012-10.245 72.321-19.942-4.262 9.105-11.935 17.089-22.786 23.565-21.319 12.726-54.445 19.452-95.796 19.452-41.48 0-74.672-6.766-95.987-19.567-10.753-6.458-18.368-14.4-22.603-23.454 22.31 9.698 46.505 16.392 72.323 19.945 5.477.75 10.518-3.072 11.27-8.543.753-5.471-3.071-10.517-8.543-11.27-59.481-8.185-108.182-33.368-145.013-74.904zm32.907 237.397c-22.087-11.69-47.929-31.005-61.988-46.604 3.951-11.454 8.001-22.563 12.147-33.321 18.861 15.284 38.737 26.208 59.322 32.597-3.443 15.993-6.641 32.177-9.481 47.328zm13.855-66.91c-19.321-6.259-38.065-17.178-55.899-32.557 4.415-10.688 8.931-20.994 13.546-30.913 13.734 10.965 30.589 19.65 51.731 26.729-3.221 11.296-6.368 23.774-9.378 36.741zm-9.014-112.618c2.817 1.762 5.686 3.447 8.58 5.094 1.438 15.163 8.331 28.949 19.995 40.262-1.42 3.471-2.839 7.297-4.251 11.422-20.552-6.924-36.316-15.409-48.684-26.2 6.072-12.068 12.302-23.491 18.683-34.254 1.876 1.248 3.764 2.479 5.677 3.676zm-15.745 242.227c-41.505-19.994-62.172-45.274-68.558-54.217 3.366-11.548 6.823-22.8 10.363-33.771 17.581 16.842 43.492 35.135 65.347 45.815-3.098 17.376-5.556 32.237-7.152 42.173zm26.679-37.542c8.325-46.765 21.347-112.401 34.207-146.819 24.75 14.635 60.289 22.059 105.663 22.059 45.369 0 80.913-7.423 105.664-22.057 12.859 34.422 25.882 100.054 34.206 146.817-64.076 10.371-215.663 10.372-279.74 0zm306.419 37.542c-1.596-9.935-4.054-24.796-7.152-42.174 21.854-10.68 47.765-28.973 65.346-45.815 3.54 10.971 6.997 22.222 10.363 33.769-6.408 8.973-27.075 34.237-68.557 54.22z"/><path d="m256 269.986c5.522 0 10-4.477 10-10s-4.478-10-10-10h-.007c-5.522 0-9.996 4.477-9.996 10s4.481 10 10.003 10z"/></g></g></svg>