<svg id="Capa_1" enable-background="new 0 0 513.194 513.194" height="512" viewBox="0 0 513.194 513.194" width="512" xmlns="http://www.w3.org/2000/svg"><g><path d="m458.415 348.934c-2.558-2.558-5.948-3.778-9.308-3.685v-177.305c.119.003.237.017.356.017 3.242 0 6.484-1.233 8.952-3.701l19.556-19.557c2.392-2.391 3.708-5.57 3.708-8.952 0-3.381-1.316-6.56-3.708-8.952l-28.864-28.864v-52.038c0-9.183-7.47-16.652-16.652-16.652h-52.039l-25.543-25.543c-4.936-4.936-12.968-4.936-17.903 0l-19.556 19.557c-1.675 1.674-2.809 3.74-3.346 5.986h-114.942c-.537-2.247-1.671-4.312-3.346-5.986l-19.557-19.557c-4.936-4.936-12.967-4.936-17.903 0l-25.543 25.543h-53.038c-9.182 0-16.652 7.47-16.652 16.652v53.039l-27.865 27.864c-2.391 2.392-3.708 5.57-3.708 8.951 0 3.382 1.317 6.562 3.708 8.952l19.557 19.557c2.304 2.304 5.284 3.518 8.308 3.67v121.22c0 4.143 3.358 7.5 7.5 7.5s7.5-3.357 7.5-7.5v-130.295l56.771-56.771v259.037c0 4.143 3.358 7.5 7.5 7.5h227.478c4.142 0 7.5-3.357 7.5-7.5v-55.331c0-4.143-3.358-7.5-7.5-7.5s-7.5 3.357-7.5 7.5v47.832h-212.478v-260.141h34.052c4.142 0 7.5-3.357 7.5-7.5s-3.358-7.5-7.5-7.5h-25.449l34.236-34.236h127.798l34.236 34.236h-138.858c-4.142 0-7.5 3.357-7.5 7.5s3.358 7.5 7.5 7.5h146.463v180.346c0 4.143 3.358 7.5 7.5 7.5s7.5-3.357 7.5-7.5v-172.743l56.771 56.771v197.483l-116.693 116.695c-.294.294-.571.601-.832.917h-119.97c-.261-.316-.538-.623-.832-.917l-117.693-117.694v-33.226c0-4.143-3.358-7.5-7.5-7.5s-7.5 3.357-7.5 7.5v24.15c-3.024.153-6.003 1.367-8.308 3.671l-19.556 19.557c-2.392 2.391-3.708 5.57-3.708 8.952 0 3.381 1.316 6.56 3.708 8.952l27.864 27.864v57.038c0 9.182 7.47 16.652 16.652 16.652h57.039l21.543 21.543c2.468 2.468 5.709 3.701 8.951 3.701s6.484-1.233 8.952-3.701l19.556-19.557c.613-.613 1.153-1.279 1.621-1.986h118.392c.468.707 1.008 1.373 1.621 1.986l19.557 19.557c2.468 2.468 5.709 3.701 8.952 3.701 3.242 0 6.483-1.233 8.951-3.701l21.543-21.543h56.039c9.182 0 16.652-7.471 16.652-16.652v-56.039l28.865-28.865c2.391-2.392 3.708-5.57 3.708-8.951 0-3.382-1.317-6.562-3.708-8.952zm-25.96-304.689c.911 0 1.652.741 1.652 1.652v37.038l-38.691-38.691h37.039zm-354.368 1.652c0-.911.741-1.652 1.652-1.652h38.039l-39.691 39.691zm-14.356 106.102-16.247-16.247 119.788-119.789 16.247 16.247zm282.191-136.036 119.788 119.788-16.247 16.247-119.788-119.788zm-266.183 456.987c-.911 0-1.652-.741-1.652-1.652v-42.038l43.691 43.69zm87.533 24.281-119.788-119.788 16.247-16.247 119.788 119.789zm266.835-25.934c0 .911-.741 1.652-1.652 1.652h-41.039l42.691-42.691zm-88.185 25.934-16.247-16.246 119.788-119.789 16.247 16.247z"/><path d="m336.15 189.864c-1.521-4.68-5.491-8.027-10.36-8.734l-39.858-5.793-17.825-36.117c-2.178-4.413-6.587-7.154-11.509-7.154s-9.331 2.741-11.509 7.154l-17.825 36.117-39.858 5.793c-4.87.707-8.84 4.055-10.36 8.734s-.276 9.721 3.248 13.155l28.842 28.115-6.809 39.696c-.832 4.85 1.124 9.66 5.104 12.552 3.98 2.895 9.159 3.267 13.517.979l35.65-18.743 35.651 18.743c1.895.996 3.944 1.487 5.983 1.487 2.65 0 5.283-.83 7.533-2.466 3.98-2.892 5.937-7.702 5.104-12.551l-6.809-39.697 28.841-28.114c3.525-3.436 4.769-8.477 3.249-13.156zm-43.375 31.323c-3.026 2.95-4.406 7.197-3.691 11.359l6.259 36.495-32.772-17.229c-1.871-.984-3.922-1.476-5.974-1.476-2.051 0-4.103.491-5.972 1.475l-32.773 17.23 6.259-36.494c.714-4.163-.665-8.41-3.691-11.359l-26.514-25.846 36.639-5.324c4.182-.606 7.796-3.231 9.666-7.021l16.387-33.203 16.387 33.203c1.87 3.79 5.484 6.415 9.664 7.021l36.642 5.325z"/><path d="m342.211 135.873c-.001-3.034-1.514-5.841-4.046-7.508-6.956-4.582-11.894-11.893-13.546-20.06-.815-4.025-4.253-6.837-8.361-6.837 0 0-.001 0-.002 0-4.108.001-7.546 2.813-8.359 6.839-1.652 8.165-6.589 15.476-13.544 20.057-2.534 1.668-4.047 4.475-4.048 7.509-.001 3.033 1.51 5.842 4.046 7.515 6.956 4.582 11.894 11.893 13.545 20.057.814 4.026 4.251 6.838 8.359 6.839h.002c4.107 0 7.545-2.812 8.361-6.839 1.652-8.164 6.589-15.475 13.549-20.059 2.534-1.672 4.046-4.48 4.044-7.513zm-25.953 8.909c-2.066-3.252-4.531-6.25-7.335-8.906 2.803-2.655 5.269-5.654 7.335-8.906 2.067 3.253 4.531 6.25 7.335 8.906-2.804 2.656-5.269 5.654-7.335 8.906z"/><path d="m195.747 284.527c-.795-3.928-4.28-6.778-8.287-6.778s-7.492 2.851-8.287 6.778c-1.501 7.42-5.988 14.063-12.309 18.228-2.504 1.648-3.999 4.422-3.999 7.419 0 2.998 1.495 5.771 3.997 7.42 6.323 4.164 10.81 10.808 12.31 18.228.795 3.928 4.28 6.778 8.287 6.778s7.492-2.851 8.287-6.778c1.501-7.42 5.988-14.063 12.311-18.229 2.502-1.648 3.997-4.422 3.997-7.419 0-2.996-1.494-5.77-3.997-7.419-6.321-4.165-10.808-10.808-12.31-18.228zm-8.287 32.883c-1.733-2.614-3.744-5.044-5.997-7.235 2.252-2.192 4.264-4.622 5.997-7.236 1.733 2.614 3.744 5.044 5.998 7.236-2.254 2.191-4.264 4.62-5.998 7.235z"/></g></svg>